<?xml version="1.0" encoding="utf-8"?>
<!-- Generator: Adobe Illustrator 16.0.0, SVG Export Plug-In . SVG Version: 6.00 Build 0)  -->
<!DOCTYPE svg PUBLIC "-//W3C//DTD SVG 1.1//EN" "http://www.w3.org/Graphics/SVG/1.1/DTD/svg11.dtd">
<svg version="1.1" xmlns="http://www.w3.org/2000/svg" xmlns:xlink="http://www.w3.org/1999/xlink" x="0px" y="0px" width="16px"
	 height="16px" viewBox="0 0 16 16" enable-background="new 0 0 16 16" xml:space="preserve">
<g id="Background_xA0_Image_1_">
</g>
<g id="Row_5_1_">
</g>
<g id="Row_4_1_">
	<g id="cloud">
		<g>
			<path fill="#fff" d="M13,7h-1c0-2.209-1.791-4-4-4S4,4.791,4,7H3c-1.657,0-3,1.343-3,3s1.343,3,3,3h10c1.542,0,3-1.476,3-3
				C16,8.343,14.657,7,13,7z M13,11H3c-0.414,0-0.77-0.252-0.922-0.61c-0.104-0.248-0.104-0.531,0-0.779C2.23,9.252,2.586,9,3,9h2
				c0.553,0,1-0.448,1-1V7c0-1.104,0.896-2,2-2s2,0.896,2,2v1c0,0.552,0.447,1,1,1c0.122-0.003,1.858,0,2,0c0.553,0,1,0.447,1,1
				S13.553,11,13,11z"/>
		</g>
	</g>
</g>
<g id="Row_3_1_">
</g>
<g id="Row_2_1_">
</g>
<g id="Row_1_1_">
</g>
</svg>
