<?xml version="1.0" encoding="utf-8"?>
<!-- Generator: Adobe Illustrator 16.0.0, SVG Export Plug-In . SVG Version: 6.00 Build 0)  -->
<!DOCTYPE svg PUBLIC "-//W3C//DTD SVG 1.1//EN" "http://www.w3.org/Graphics/SVG/1.1/DTD/svg11.dtd">
<svg version="1.1" xmlns="http://www.w3.org/2000/svg" xmlns:xlink="http://www.w3.org/1999/xlink" x="0px" y="0px" width="16px"
	 height="16px" viewBox="0 0 16 16" enable-background="new 0 0 16 16" xml:space="preserve">
<g id="Background_xA0_Image_1_">
</g>
<g id="Row_5_1_">
	<g id="search">
		<g>
			<path fill="#fff" d="M15.707,14.293L9.168,7.754C9.691,6.964,10,6.019,10,5c0-2.762-2.238-5-5-5S0,2.238,0,5s2.238,5,5,5
				c1.019,0,1.964-0.309,2.754-0.832l6.539,6.539C14.474,15.888,14.724,16,15,16c0.553,0,1-0.448,1-1
				C16,14.724,15.888,14.474,15.707,14.293z M5,8C3.343,8,2,6.657,2,5s1.343-3,3-3s3,1.343,3,3S6.657,8,5,8z"/>
		</g>
	</g>
</g>
<g id="Row_4_1_">
</g>
<g id="Row_3_1_">
</g>
<g id="Row_2_1_">
</g>
<g id="Row_1_1_">
</g>
</svg>
